<svg xmlns="http://www.w3.org/2000/svg" viewBox="0 0 300 300" width="300" height="300">

  <rect width="300" height="300" rx="40" fill="#0f172a"/>

  <g fill="#ffffff">
    <rect x="75" y="70" width="150" height="120" rx="26"/>
    <line x1="150" y1="70" x2="150" y2="40" stroke="#ffffff" stroke-width="10"/>
    <circle cx="150" cy="34" r="8"/>
  </g>

  <g fill="#0f172a">
    <circle cx="120" cy="125" r="14"/>
    <circle cx="180" cy="125" r="14"/>
  </g>

  <defs>
    <linearGradient id="chartGrad" x1="0%" y1="100%" x2="0%" y2="0%">
      <stop offset="0%" stop-color="#06b6d4"/>
      <stop offset="100%" stop-color="#3b82f6"/>
    </linearGradient>
  </defs>

  <g fill="url(#chartGrad)">
    <rect x="90" y="200" width="20" height="30" rx="6"/>
    <rect x="120" y="180" width="20" height="50" rx="6"/>
    <rect x="150" y="165" width="20" height="65" rx="6"/>
    <rect x="180" y="150" width="20" height="80" rx="6"/>
  </g>

  <polyline
    points="95,205 130,175 160,185 200,145"
    fill="none"
    stroke="#ffffff"
    stroke-width="12"
    stroke-linecap="round"
    stroke-linejoin="round"
  />

  <polygon
    points="200,145 192,160 212,150"
    fill="#ffffff"
  />

</svg>
